<svg width="401" height="200" viewBox="0 0 401 200" fill="none" xmlns="http://www.w3.org/2000/svg">
<path fill-rule="evenodd" clip-rule="evenodd" d="M0.88672 138.71L0.886719 61.2905L1.96199 61.2905L1.96199 138.71L0.88672 138.71Z" fill="#7559FF"/>
<path fill-rule="evenodd" clip-rule="evenodd" d="M4.67859 131.183L4.67859 68.8174L5.75386 68.8174L5.75386 131.183L4.67859 131.183Z" fill="#7559FF"/>
<path fill-rule="evenodd" clip-rule="evenodd" d="M8.47058 174.194L8.47058 25.8066L9.54585 25.8066L9.54585 174.194L8.47058 174.194Z" fill="#7559FF"/>
<path fill-rule="evenodd" clip-rule="evenodd" d="M12.2625 181.721L12.2625 18.2798L13.3377 18.2798L13.3377 181.721L12.2625 181.721Z" fill="#7559FF"/>
<path fill-rule="evenodd" clip-rule="evenodd" d="M16.0544 187.097L16.0544 12.9033L17.1296 12.9033L17.1297 187.097L16.0544 187.097Z" fill="#7559FF"/>
<path fill-rule="evenodd" clip-rule="evenodd" d="M19.8463 200L19.8463 0L20.9216 -1.4034e-07L20.9216 200L19.8463 200Z" fill="#7559FF"/>
<path fill-rule="evenodd" clip-rule="evenodd" d="M23.6382 159.14L23.6382 40.8604L24.7135 40.8604L24.7135 159.14L23.6382 159.14Z" fill="#7559FF"/>
<path fill-rule="evenodd" clip-rule="evenodd" d="M27.4301 131.183L27.4301 68.8174L28.5054 68.8174L28.5054 131.183L27.4301 131.183Z" fill="#7559FF"/>
<path fill-rule="evenodd" clip-rule="evenodd" d="M31.222 112.903L31.222 87.0967L32.2973 87.0967L32.2973 112.903L31.222 112.903Z" fill="#7559FF"/>
<path fill-rule="evenodd" clip-rule="evenodd" d="M35.014 112.903L35.014 87.0967L36.0892 87.0967L36.0892 112.903L35.014 112.903Z" fill="#7559FF"/>
<path fill-rule="evenodd" clip-rule="evenodd" d="M38.8059 112.903L38.8059 87.0967L39.8812 87.0967L39.8812 112.903L38.8059 112.903Z" fill="#7559FF"/>
<path fill-rule="evenodd" clip-rule="evenodd" d="M42.5978 112.903L42.5978 87.0967L43.673 87.0967L43.673 112.903L42.5978 112.903Z" fill="#7559FF"/>
<path fill-rule="evenodd" clip-rule="evenodd" d="M46.3897 123.118L46.3897 76.8818L47.465 76.8818L47.465 123.118L46.3897 123.118Z" fill="#7559FF"/>
<path fill-rule="evenodd" clip-rule="evenodd" d="M50.1816 149.462V50.5376H51.2569V149.462H50.1816Z" fill="#7559FF"/>
<path fill-rule="evenodd" clip-rule="evenodd" d="M53.9736 164.516L53.9736 35.4839L55.0488 35.4839L55.0488 164.516L53.9736 164.516Z" fill="#7559FF"/>
<path fill-rule="evenodd" clip-rule="evenodd" d="M57.7654 133.333L57.7654 66.6665L58.8407 66.6665L58.8407 133.333L57.7654 133.333Z" fill="#7559FF"/>
<path fill-rule="evenodd" clip-rule="evenodd" d="M61.5574 164.516L61.5574 35.4839L62.6326 35.4839L62.6326 164.516L61.5574 164.516Z" fill="#7559FF"/>
<path fill-rule="evenodd" clip-rule="evenodd" d="M65.3493 138.71L65.3493 61.2905L66.4246 61.2905L66.4246 138.71L65.3493 138.71Z" fill="#7559FF"/>
<path fill-rule="evenodd" clip-rule="evenodd" d="M69.1412 112.903L69.1412 87.0967L70.2165 87.0967L70.2165 112.903L69.1412 112.903Z" fill="#7559FF"/>
<path fill-rule="evenodd" clip-rule="evenodd" d="M72.9331 112.903L72.9331 87.0967L74.0084 87.0967L74.0084 112.903L72.9331 112.903Z" fill="#7559FF"/>
<path fill-rule="evenodd" clip-rule="evenodd" d="M76.725 112.903L76.725 87.0967L77.8003 87.0967L77.8003 112.903L76.725 112.903Z" fill="#7559FF"/>
<path fill-rule="evenodd" clip-rule="evenodd" d="M80.517 112.903L80.517 87.0967L81.5922 87.0967L81.5922 112.903L80.517 112.903Z" fill="#7559FF"/>
<path fill-rule="evenodd" clip-rule="evenodd" d="M84.3089 162.903L84.3089 37.0967L85.3842 37.0967L85.3842 162.903L84.3089 162.903Z" fill="#7559FF"/>
<path fill-rule="evenodd" clip-rule="evenodd" d="M88.1008 197.849L88.1008 2.15039L89.1761 2.15039L89.1761 197.849L88.1008 197.849Z" fill="#7559FF"/>
<path fill-rule="evenodd" clip-rule="evenodd" d="M91.8927 181.721L91.8927 18.2798L92.968 18.2798L92.968 181.721L91.8927 181.721Z" fill="#7559FF"/>
<path fill-rule="evenodd" clip-rule="evenodd" d="M95.6846 120.43L95.6846 79.5698L96.7599 79.5698L96.7599 120.43L95.6846 120.43Z" fill="#7559FF"/>
<path fill-rule="evenodd" clip-rule="evenodd" d="M99.4766 136.022L99.4766 63.9785L100.552 63.9785L100.552 136.022L99.4766 136.022Z" fill="#7559FF"/>
<path fill-rule="evenodd" clip-rule="evenodd" d="M103.268 156.452L103.268 43.5483L104.344 43.5483L104.344 156.452L103.268 156.452Z" fill="#7559FF"/>
<path fill-rule="evenodd" clip-rule="evenodd" d="M107.06 156.452L107.06 43.5483L108.136 43.5483L108.136 156.452L107.06 156.452Z" fill="#7559FF"/>
<path fill-rule="evenodd" clip-rule="evenodd" d="M110.852 136.022L110.852 63.9785L111.928 63.9785L111.928 136.022L110.852 136.022Z" fill="#7559FF"/>
<path fill-rule="evenodd" clip-rule="evenodd" d="M114.644 138.71L114.644 61.2905L115.719 61.2905L115.719 138.71L114.644 138.71Z" fill="#7559FF"/>
<path fill-rule="evenodd" clip-rule="evenodd" d="M118.436 136.022L118.436 63.9785L119.511 63.9785L119.511 136.022L118.436 136.022Z" fill="#7559FF"/>
<path fill-rule="evenodd" clip-rule="evenodd" d="M122.228 120.43L122.228 79.5698L123.303 79.5698L123.303 120.43L122.228 120.43Z" fill="#7559FF"/>
<path fill-rule="evenodd" clip-rule="evenodd" d="M126.02 112.903L126.02 87.0967L127.095 87.0967L127.095 112.903L126.02 112.903Z" fill="#7559FF"/>
<path fill-rule="evenodd" clip-rule="evenodd" d="M129.812 123.118L129.812 76.8818L130.887 76.8818L130.887 123.118L129.812 123.118Z" fill="#7559FF"/>
<path fill-rule="evenodd" clip-rule="evenodd" d="M133.604 149.462V50.5376H134.679V149.462H133.604Z" fill="#7559FF"/>
<path fill-rule="evenodd" clip-rule="evenodd" d="M137.396 164.516L137.396 35.4839L138.471 35.4839L138.471 164.516L137.396 164.516Z" fill="#7559FF"/>
<path fill-rule="evenodd" clip-rule="evenodd" d="M141.188 133.333L141.188 66.6665L142.263 66.6665L142.263 133.333L141.188 133.333Z" fill="#7559FF"/>
<path fill-rule="evenodd" clip-rule="evenodd" d="M144.98 164.516L144.98 35.4839L146.055 35.4839L146.055 164.516L144.98 164.516Z" fill="#7559FF"/>
<path fill-rule="evenodd" clip-rule="evenodd" d="M148.771 138.71L148.771 61.2905L149.847 61.2905L149.847 138.71L148.771 138.71Z" fill="#7559FF"/>
<path fill-rule="evenodd" clip-rule="evenodd" d="M152.563 112.903L152.563 87.0967L153.639 87.0967L153.639 112.903L152.563 112.903Z" fill="#7559FF"/>
<path fill-rule="evenodd" clip-rule="evenodd" d="M156.355 105.376L156.355 94.6235L157.431 94.6235L157.431 105.376L156.355 105.376Z" fill="#7559FF"/>
<path fill-rule="evenodd" clip-rule="evenodd" d="M160.147 105.376L160.147 94.6235L161.222 94.6235L161.222 105.376L160.147 105.376Z" fill="#7559FF"/>
<path fill-rule="evenodd" clip-rule="evenodd" d="M163.939 126.882L163.939 73.1182L165.014 73.1182L165.014 126.882L163.939 126.882Z" fill="#7559FF"/>
<path fill-rule="evenodd" clip-rule="evenodd" d="M167.731 169.355L167.731 30.645L168.806 30.645L168.806 169.355L167.731 169.355Z" fill="#7559FF"/>
<path fill-rule="evenodd" clip-rule="evenodd" d="M171.523 143.548L171.523 56.4517L172.598 56.4517L172.598 143.548L171.523 143.548Z" fill="#7559FF"/>
<path fill-rule="evenodd" clip-rule="evenodd" d="M175.315 136.022L175.315 63.9785L176.39 63.9785L176.39 136.022L175.315 136.022Z" fill="#7559FF"/>
<path fill-rule="evenodd" clip-rule="evenodd" d="M179.107 112.903L179.107 87.0967L180.182 87.0967L180.182 112.903L179.107 112.903Z" fill="#7559FF"/>
<path fill-rule="evenodd" clip-rule="evenodd" d="M182.899 112.903L182.899 87.0967L183.974 87.0967L183.974 112.903L182.899 112.903Z" fill="#7559FF"/>
<path fill-rule="evenodd" clip-rule="evenodd" d="M186.691 112.903L186.691 87.0967L187.766 87.0967L187.766 112.903L186.691 112.903Z" fill="#7559FF"/>
<path fill-rule="evenodd" clip-rule="evenodd" d="M190.483 123.118L190.483 76.8818L191.558 76.8818L191.558 123.118L190.483 123.118Z" fill="#7559FF"/>
<path fill-rule="evenodd" clip-rule="evenodd" d="M194.274 156.452L194.274 43.5483L195.35 43.5483L195.35 156.452L194.274 156.452Z" fill="#7559FF"/>
<path fill-rule="evenodd" clip-rule="evenodd" d="M198.066 138.71L198.066 61.2905L199.142 61.2905L199.142 138.71L198.066 138.71Z" fill="#7559FF"/>
<path fill-rule="evenodd" clip-rule="evenodd" d="M201.858 138.71L201.858 61.2905L202.934 61.2905L202.934 138.71L201.858 138.71Z" fill="#7559FF"/>
<path fill-rule="evenodd" clip-rule="evenodd" d="M205.65 131.183L205.65 68.8174L206.725 68.8174L206.725 131.183L205.65 131.183Z" fill="#7559FF"/>
<path fill-rule="evenodd" clip-rule="evenodd" d="M209.442 174.194L209.442 25.8066L210.517 25.8066L210.517 174.194L209.442 174.194Z" fill="#7559FF"/>
<path fill-rule="evenodd" clip-rule="evenodd" d="M213.234 181.721L213.234 18.2798L214.309 18.2798L214.309 181.721L213.234 181.721Z" fill="#7559FF"/>
<path fill-rule="evenodd" clip-rule="evenodd" d="M217.026 187.097L217.026 12.9033L218.101 12.9033L218.101 187.097L217.026 187.097Z" fill="#7559FF"/>
<path fill-rule="evenodd" clip-rule="evenodd" d="M220.818 200L220.818 0L221.893 -1.4034e-07L221.893 200L220.818 200Z" fill="#7559FF"/>
<path fill-rule="evenodd" clip-rule="evenodd" d="M224.61 159.14L224.61 40.8604L225.685 40.8604L225.685 159.14L224.61 159.14Z" fill="#7559FF"/>
<path fill-rule="evenodd" clip-rule="evenodd" d="M228.402 131.183L228.402 68.8174L229.477 68.8174L229.477 131.183L228.402 131.183Z" fill="#7559FF"/>
<path fill-rule="evenodd" clip-rule="evenodd" d="M232.194 112.903L232.194 87.0967L233.269 87.0967L233.269 112.903L232.194 112.903Z" fill="#7559FF"/>
<path fill-rule="evenodd" clip-rule="evenodd" d="M235.986 112.903L235.986 87.0967L237.061 87.0967L237.061 112.903L235.986 112.903Z" fill="#7559FF"/>
<path fill-rule="evenodd" clip-rule="evenodd" d="M239.777 112.903L239.777 87.0967L240.853 87.0967L240.853 112.903L239.777 112.903Z" fill="#7559FF"/>
<path fill-rule="evenodd" clip-rule="evenodd" d="M243.569 112.903L243.569 87.0967L244.645 87.0967L244.645 112.903L243.569 112.903Z" fill="#7559FF"/>
<path fill-rule="evenodd" clip-rule="evenodd" d="M247.361 123.118L247.361 76.8818L248.437 76.8818L248.437 123.118L247.361 123.118Z" fill="#7559FF"/>
<path fill-rule="evenodd" clip-rule="evenodd" d="M251.153 149.462V50.5376H252.228V149.462H251.153Z" fill="#7559FF"/>
<path fill-rule="evenodd" clip-rule="evenodd" d="M254.945 164.516L254.945 35.4839L256.02 35.4839L256.02 164.516L254.945 164.516Z" fill="#7559FF"/>
<path fill-rule="evenodd" clip-rule="evenodd" d="M258.737 133.333L258.737 66.6665L259.812 66.6665L259.812 133.333L258.737 133.333Z" fill="#7559FF"/>
<path fill-rule="evenodd" clip-rule="evenodd" d="M262.529 164.516L262.529 35.4839L263.604 35.4839L263.604 164.516L262.529 164.516Z" fill="#7559FF"/>
<path fill-rule="evenodd" clip-rule="evenodd" d="M266.321 138.71L266.321 61.2905L267.396 61.2905L267.396 138.71L266.321 138.71Z" fill="#7559FF"/>
<path fill-rule="evenodd" clip-rule="evenodd" d="M270.113 112.903L270.113 87.0967L271.188 87.0967L271.188 112.903L270.113 112.903Z" fill="#7559FF"/>
<path fill-rule="evenodd" clip-rule="evenodd" d="M273.905 112.903L273.905 87.0967L274.98 87.0967L274.98 112.903L273.905 112.903Z" fill="#7559FF"/>
<path fill-rule="evenodd" clip-rule="evenodd" d="M277.697 112.903L277.697 87.0967L278.772 87.0967L278.772 112.903L277.697 112.903Z" fill="#7559FF"/>
<path fill-rule="evenodd" clip-rule="evenodd" d="M281.489 112.903L281.489 87.0967L282.564 87.0967L282.564 112.903L281.489 112.903Z" fill="#7559FF"/>
<path fill-rule="evenodd" clip-rule="evenodd" d="M285.281 162.903L285.281 37.0967L286.356 37.0967L286.356 162.903L285.281 162.903Z" fill="#7559FF"/>
<path fill-rule="evenodd" clip-rule="evenodd" d="M289.072 197.849L289.072 2.15039L290.148 2.15039L290.148 197.849L289.072 197.849Z" fill="#7559FF"/>
<path fill-rule="evenodd" clip-rule="evenodd" d="M292.864 181.721L292.864 18.2798L293.94 18.2798L293.94 181.721L292.864 181.721Z" fill="#7559FF"/>
<path fill-rule="evenodd" clip-rule="evenodd" d="M296.656 120.43L296.656 79.5698L297.732 79.5698L297.732 120.43L296.656 120.43Z" fill="#7559FF"/>
<path fill-rule="evenodd" clip-rule="evenodd" d="M300.448 136.022L300.448 63.9785L301.524 63.9785L301.524 136.022L300.448 136.022Z" fill="#7559FF"/>
<path fill-rule="evenodd" clip-rule="evenodd" d="M304.24 156.452L304.24 43.5483L305.315 43.5483L305.315 156.452L304.24 156.452Z" fill="#7559FF"/>
<path fill-rule="evenodd" clip-rule="evenodd" d="M308.032 156.452L308.032 43.5483L309.107 43.5483L309.107 156.452L308.032 156.452Z" fill="#7559FF"/>
<path fill-rule="evenodd" clip-rule="evenodd" d="M311.824 136.022L311.824 63.9785L312.899 63.9785L312.899 136.022L311.824 136.022Z" fill="#7559FF"/>
<path fill-rule="evenodd" clip-rule="evenodd" d="M315.616 138.71L315.616 61.2905L316.691 61.2905L316.691 138.71L315.616 138.71Z" fill="#7559FF"/>
<path fill-rule="evenodd" clip-rule="evenodd" d="M319.408 136.022L319.408 63.9785L320.483 63.9785L320.483 136.022L319.408 136.022Z" fill="#7559FF"/>
<path fill-rule="evenodd" clip-rule="evenodd" d="M323.2 120.43L323.2 79.5698L324.275 79.5698L324.275 120.43L323.2 120.43Z" fill="#7559FF"/>
<path fill-rule="evenodd" clip-rule="evenodd" d="M326.992 112.903L326.992 87.0967L328.067 87.0967L328.067 112.903L326.992 112.903Z" fill="#7559FF"/>
<path fill-rule="evenodd" clip-rule="evenodd" d="M330.784 123.118L330.784 76.8818L331.859 76.8818L331.859 123.118L330.784 123.118Z" fill="#7559FF"/>
<path fill-rule="evenodd" clip-rule="evenodd" d="M334.576 149.462V50.5376H335.651V149.462H334.576Z" fill="#7559FF"/>
<path fill-rule="evenodd" clip-rule="evenodd" d="M338.368 164.516L338.368 35.4839L339.443 35.4839L339.443 164.516L338.368 164.516Z" fill="#7559FF"/>
<path fill-rule="evenodd" clip-rule="evenodd" d="M342.159 133.333L342.159 66.6665L343.235 66.6665L343.235 133.333L342.159 133.333Z" fill="#7559FF"/>
<path fill-rule="evenodd" clip-rule="evenodd" d="M345.951 164.516L345.951 35.4839L347.027 35.4839L347.027 164.516L345.951 164.516Z" fill="#7559FF"/>
<path fill-rule="evenodd" clip-rule="evenodd" d="M349.743 138.71L349.743 61.2905L350.819 61.2905L350.819 138.71L349.743 138.71Z" fill="#7559FF"/>
<path fill-rule="evenodd" clip-rule="evenodd" d="M353.535 112.903L353.535 87.0967L354.611 87.0967L354.611 112.903L353.535 112.903Z" fill="#7559FF"/>
<path fill-rule="evenodd" clip-rule="evenodd" d="M357.327 105.376L357.327 94.6235L358.402 94.6235L358.402 105.376L357.327 105.376Z" fill="#7559FF"/>
<path fill-rule="evenodd" clip-rule="evenodd" d="M361.119 105.376L361.119 94.6235L362.194 94.6235L362.194 105.376L361.119 105.376Z" fill="#7559FF"/>
<path fill-rule="evenodd" clip-rule="evenodd" d="M364.911 126.882L364.911 73.1182L365.986 73.1182L365.986 126.882L364.911 126.882Z" fill="#7559FF"/>
<path fill-rule="evenodd" clip-rule="evenodd" d="M368.703 169.355L368.703 30.645L369.778 30.645L369.778 169.355L368.703 169.355Z" fill="#7559FF"/>
<path fill-rule="evenodd" clip-rule="evenodd" d="M372.495 143.548L372.495 56.4517L373.57 56.4517L373.57 143.548L372.495 143.548Z" fill="#7559FF"/>
<path fill-rule="evenodd" clip-rule="evenodd" d="M376.287 136.022L376.287 63.9785L377.362 63.9785L377.362 136.022L376.287 136.022Z" fill="#7559FF"/>
<path fill-rule="evenodd" clip-rule="evenodd" d="M380.079 112.903L380.079 87.0967L381.154 87.0967L381.154 112.903L380.079 112.903Z" fill="#7559FF"/>
<path fill-rule="evenodd" clip-rule="evenodd" d="M383.871 112.903L383.871 87.0967L384.946 87.0967L384.946 112.903L383.871 112.903Z" fill="#7559FF"/>
<path fill-rule="evenodd" clip-rule="evenodd" d="M387.663 112.903L387.663 87.0967L388.738 87.0967L388.738 112.903L387.663 112.903Z" fill="#7559FF"/>
<path fill-rule="evenodd" clip-rule="evenodd" d="M391.455 123.118L391.455 76.8818L392.53 76.8818L392.53 123.118L391.455 123.118Z" fill="#7559FF"/>
<path fill-rule="evenodd" clip-rule="evenodd" d="M395.247 156.452L395.247 43.5483L396.322 43.5483L396.322 156.452L395.247 156.452Z" fill="#7559FF"/>
<path fill-rule="evenodd" clip-rule="evenodd" d="M399.038 138.71L399.038 61.2905L400.114 61.2905L400.114 138.71L399.038 138.71Z" fill="#7559FF"/>
</svg>
